<?xml version="1.0" encoding="UTF-8"?>
<svg id="_图层_1" data-name="图层 1" xmlns="http://www.w3.org/2000/svg" viewBox="0 0 463.31 464.35">
  <defs>
    <style>
      .cls-1 {
        fill: #1b1b1b;
      }
    </style>
  </defs>
  <g>
    <path class="cls-1" d="M107.8,355.69c.75,.02,.36-.22-1.69-.52l-1.51,.09,3.2,.43Z"/>
    <path class="cls-1" d="M94.22,352.37c-1.2-.23-2.5-.44-3.32-.52-.81-.11-1.15-.06-.43,.32,2.42,.33,2.97,.58,5.57,.86,2.03,.43,3.52,.86,3.15,.91,.74,.06,3.14,.76,4.29,.7-1.32-.32-2.79-.73-4.4-1.07-.8-.17-1.63-.34-2.48-.49-.85-.18-1.71-.36-2.59-.54-.72-.26,.02-.16,.2-.18Z"/>
    <path class="cls-1" d="M6.57,194.87c-.15,.41-.3,.81-.42,1.23,.12-.34,.26-.76,.42-1.23Z"/>
    <path class="cls-1" d="M93.63,113.08c-.92,.24-1.3,.37-1.33,.41,.85-.24,1.55-.43,1.33-.41Z"/>
    <path class="cls-1" d="M110.69,103.46c-.08,.45-.13,.83-.2,1.23,.09-.47,.17-.94,.2-1.23Z"/>
    <path class="cls-1" d="M6.57,194.87l1.14-3.14c-.03-.26-.61,1.6-1.14,3.14Z"/>
    <path class="cls-1" d="M67.76,343.36c.64,.31,1.17,.55,1.67,.76-.52-.25-1.03-.5-1.55-.75-.04,0-.07,0-.12,0Z"/>
    <path class="cls-1" d="M2.39,249.29l.14,1c.08,.29,.16,.56,.25,.81l-.38-1.82Z"/>
    <path class="cls-1" d="M14.99,289.3c-.42-.86-.81-1.03-1.09-1.3,.35,.43,.71,1.04,1.1,1.78,.05-.01,.05-.15-.02-.48Z"/>
    <path class="cls-1" d="M59.96,337.77c.34,.21,.7,.38,1.05,.57-.27-.15-.74-.38-1.05-.57Z"/>
    <path class="cls-1" d="M1.96,219.19c.05-.07,.1-.21,.14-.37-.04,0-.08,.14-.14,.37Z"/>
    <path class="cls-1" d="M123.14,402.1s.02-.03,.04-.03c-.15-.2-.21-.26-.04,.03Z"/>
    <path class="cls-1" d="M108.21,355.26l.19,.65c.07,.06,.14,.11,.19,.1l-.38-.76Z"/>
    <path class="cls-1" d="M123.75,67.17c-.04,.06-.05,.09-.09,.15-.44,.92-.2,.39,.09-.15Z"/>
    <path class="cls-1" d="M399.31,126.04c-1.71-1.08-.23-.36,1.03,.23,1.24,.63,2.28,1.11-.31-.52,.44,.36-5.07-2.27-.72,.29Z"/>
    <path class="cls-1" d="M66.79,342.82c-.51-.26-1.04-.53-1.56-.79,.7,.37,1.18,.62,1.56,.79Z"/>
    <path class="cls-1" d="M400.03,125.75h0s-.54-.33-.54-.33c.22,.14,.35,.21,.54,.33Z"/>
    <path class="cls-1" d="M189.5,9.98c-.19,0-.54,.08-.91,.17,.04,.02,.25-.01,.91-.17Z"/>
    <path class="cls-1" d="M135.73,47.75l1.02-1.3c-.41,.51-.74,.93-1.02,1.3Z"/>
    <path class="cls-1" d="M223.28,2.57c.9-.05,1.2-.08,2.43-.16-.12,0-.23,0-.37-.02-.44,.05-1.03,.14-2.05,.18Z"/>
    <path class="cls-1" d="M259.13,5.09c-.18-.06-.42-.14-.63-.21-.35-.09-.76-.15-1.12-.22,.59,.12,1.18,.27,1.76,.44Z"/>
    <path class="cls-1" d="M212.22,462.94c-.79-.19-1.27-.34-1.64-.48,.53,.27-4.81-.51,1.64,.48Z"/>
    <path class="cls-1" d="M67.82,343.21c-.22-.03-.52-.15-1.02-.39,.38,.19,.74,.37,1.09,.54,.11,.01,.15-.01-.07-.15Z"/>
    <path class="cls-1" d="M224.58,.23c1.95-.08,3.89-.2,5.84-.23-1.63,0-3.75,.12-5.84,.23Z"/>
    <path class="cls-1" d="M413.15,332.09l-1.07,.8c.42-.29,.8-.58,1.07-.8Z"/>
    <path class="cls-1" d="M247.72,.82c1.03,.21,2.11,.42,3.23,.65,.24,.02,.52,.04,.68,.03-1.3-.24-2.6-.51-3.91-.68Z"/>
    <path class="cls-1" d="M210.57,462.45s.01,0,.01,0c0,0,0,0-.01,0Z"/>
    <path class="cls-1" d="M174.03,451.03c4.98,2.51,2.5,.85,3.65,1.19,6.06,2.68,2.66,1.56,4.66,2.63,1.94,.76,3.66,1.37,5.3,1.85,.81,.26,1.59,.5,2.35,.74,.77,.22,1.51,.45,2.24,.7,.2,.13,.76,.34,.07,.19,1.06,.29,2.37,.65,3.82,1.04,1.44,.42,3.04,.82,4.66,1.22,3.24,.8,6.62,1.42,9.16,1.65,.37,.1,.55,.16,.64,.21-.78-.33-.88-.53-.69-.64,2.45,.39,4.58,.42,5.47,.78-1.5-.19-1.64-.13-2.36-.14,.86,.07,1.72,.19,2.59,.23,1.14,.28,.26,.24-.92,.12-1.17-.14-2.63-.34-2.65-.21,2.52,.32,5.26,.5,7.85,.65,2.59,.06,5.03,.23,6.97,.31,.8,.48-9.07-.41-3.91,.22-2-.16-4-.31-5.99-.59,4.53,.99-3.64-.4,.51,.59,1.98,.25,3.52,.3,4.85,.38,1.33,.06,2.43,.11,3.54,.16,1.11,0,2.22,0,3.54,0,1.33,0,2.87,.07,4.85,0,1.78-.24-.59-.26,1.18-.5,2.8-.15,4.75-.26,6.23-.34,1.48-.06,2.5-.02,3.43-.01,.92-.01,1.76-.02,2.87-.12,1.11-.12,2.52-.22,4.53-.72,1.04-.3,1.74-.59,2.91-.9,1.18-.28,2.8-.71,5.69-1.26l-1.87,.82c1.88-.42,3.08-.72,3.94-.97,.85-.29,1.37-.5,1.91-.71s1.08-.41,1.98-.69c.45-.14,.99-.29,1.66-.47,.66-.2,1.45-.45,2.41-.75-1.28,.67-5.73,1.88-4.6,1.61,2.56-.54,3.41-.92,4.11-1.25,.7-.34,1.25-.66,3.14-1.3l.9,.05c7.68-2.85,15.7-7.08,23.26-12.04-.36,.36-1.6,1.31,.22,.23,1.18-.8,2.38-1.62,3.6-2.45,1.22-.82,2.38-1.75,3.59-2.63,2.45-1.73,4.74-3.72,7.11-5.59,4.63-3.88,8.97-8.05,12.69-12.13,.88-1.1,1.69-2.25,2.51-3.4,.63-.75,1.26-1.32,.63-.46,2.78-3.29,.01-.28,1.19-1.97,1.47-1.95,2.1-2.46,1.22-1.18,2.21-3.08,5.21-7.58,7.88-12.32,2.71-4.72,5.12-9.65,6.89-13.22l-.57,1.45c2.62-5.64,2.23-6.65,4.43-11.96l-.31,1.06c1.16-3.16,2.21-6.45,3.16-9.76,.92-3.32,1.7-6.73,1.95-10.14,.07-1.64,.36-3.1,1.28-3.92,.93-.82,2.43-1.1,3.88-1.31,3.02-.43,5.84-.92,8.38-1.4,.91-.41,4.16-1.16,7.24-2.06,3.08-.89,5.96-1.94,6.27-2.37,3.65-1.21,4.95-1.68,6.61-2.31,.83-.31,1.74-.68,3.06-1.26,1.31-.59,3.06-1.37,5.45-2.65,2.52-1.43,3.6-2.41,6.62-4.31l.23,.22,3.92-2.88c.79-.36,1.6-.71,2.36-1.13l2.69-2.02c-1.1,.76-2.39,1.54-2.28,1.35,2.08-1.59,4.76-3.34,6.77-4.92,2.05-1.53,3.63-2.63,3.73-2.61l4.54-4.25c.77-.69,1.47-1.46,2.18-2.21l2.14-2.26c-.1,.28-1.54,1.79-2.64,3.02,2.22-2.47,2.49-2.63,2.71-2.74,.11-.05,.21-.09,.54-.4,.32-.32,.91-.86,1.84-2.08-.59,.57,.15-.46,.2-.6,.53-.54,1.22-1.27,2-2.12,.78-.85,1.67-1.81,2.49-2.91,1.68-2.17,3.56-4.51,4.91-6.69l-.38,.93c5.38-7.52,10.14-16.68,13.8-26.36-1.4,3.44-1.44,2.5-.41-.34l.73-1.02c.5-1.9-1.23,2.92-.05-.92,.71-1.79,.99-2.38,1.04-2.25,.08,.14-.11,1-.46,2.05,.55-1.47,.94-2.99,1.38-4.49,.18-.23-.1,.83-.07,1.15,.19-.95,.88-2.86,1.57-4.88,.62-2.04,1.2-4.21,1.38-5.6l.16-.23c2.28-10.08,2.88-14.79,3.41-23.21-.23-.18-.09-3.47-.27-5.98,.11-6.17-.15-13.07-1.42-20.43-1.04-5.14-.47-1.47-1.1-3.74,.09-.21-.26-2.14-.51-3.54-.29-1.4-.48-2.27,.09-.42-1.09-4.34-1.89-7.09-2.9-10.08-.52-1.49-1.03-3.06-1.77-4.88-.36-.91-.74-1.9-1.19-2.98-.47-1.07-.98-2.24-1.55-3.53,.38,1.17,.86,2.46,.51,1.84-.8-1.88-1.77-4.31-1.54-4.09l.25,.48c-2.78-5.7-6.11-12.21-9.86-18.14-3.72-5.94-7.84-11.27-11.45-14.82l.4,.41c-2.39-2.56-4.93-4.97-7.52-7.31-3.53-3.28,2.26,1.82-.26-.71-4.29-3.71-7.83-6.44-11.21-8.97-3.39-2.52-6.75-4.67-10.86-6.87-2.95-2.09-8.65-5.07-14.88-7.59-6.23-2.55-12.97-4.58-17.65-5.99l.5,.31c-2.48-.46-2.94-.82-4.74-1.28,.23,.18,2.63,.77,1.08,.51-1.3-.29-2.62-.54-3.93-.8-1.31-.25-2.71-.44-3.83-.74-1.17-.32-2-.82-2.5-1.74-.26-.46-.45-1.02-.61-1.61-.15-.58-.26-1.23-.41-1.91-.27-1.34-.55-2.68-.82-4.02l-.41-2.02-.5-2c-.33-1.34-.67-2.67-1-4.01-.33-1.34-.78-2.65-1.16-3.98-1.52-5.33-3.55-10.51-5.72-15.61-2.32-5.03-4.82-9.99-7.79-14.61-2.11-3.42-3.02-4.18-3.98-5.2-.98-1.02-1.96-2.34-5.02-6.35l2.06,2.02c-5.15-6.24-10.87-12.23-17.16-17.52-6.26-5.31-13-9.97-19.88-13.84,.85,.41,.93,.34,2.26,1.11-1.39-.92-4.02-2.56-6.43-3.72-1.2-.6-2.29-1.17-3.14-1.5-.84-.35-1.37-.55-1.41-.52-2.21-1.09-.44-.41-1.76-1.15-1.49-.77-3.47-1.51-5.24-2.2-1.81-.62-3.42-1.19-4.21-1.62-.27-.15,.91,.26,1.49,.47-1.03-.37-3.44-1.19-5.35-1.81-1.91-.63-3.35-.95-2.38-.54-5.65-1.84-11.02-2.72-15.67-3.57-1.54-.13-4.06-.42-6.32-.71-2.26-.21-4.27-.35-4.77-.17,.23-.24-2.37-.42-5.49-.51-1.56,.01-3.25,.04-4.79,.09-1.53,.11-2.91,.22-3.84,.32,.62-.1-.19-.09-.98-.1-.79,.03-1.55,.05-.83-.11-4.28,.32-8.13,1.03-7.37,1.14-1.96,.14-3.93,.35-5.83,.65-1.89,.37-3.71,.78-5.43,1.16-.86,.19-1.69,.37-2.5,.55-.79,.21-1.56,.4-2.28,.59-1.45,.36-2.75,.62-3.87,.73-.76,.22-1.53,.43-2.28,.64-.74,.26-1.49,.51-2.22,.77-1.47,.51-2.94,1.01-4.39,1.52l-1.08,.37-1.06,.44c-.7,.29-1.4,.59-2.1,.88-1.39,.58-2.78,1.16-4.15,1.73-2.67,1.32-5.32,2.58-7.89,3.94-1.26,.73-2.5,1.46-3.75,2.18-1.23,.74-2.51,1.39-3.67,2.23,.01-.77,10.93-6.31,10.36-6.34-2.46,1.15-4.52,2.46-6.48,3.63-.98,.59-1.92,1.16-2.85,1.72-.89,.62-1.77,1.23-2.64,1.84-3.55,2.37-6.89,4.99-11.08,8.34-2.1,1.82,1.01-1.25,1.77-1.81-8.32,6.93-15.36,14.32-20.88,22.21-.02-.05,.57-.9,1.13-1.71-1.13,1.53-2.71,3.49-2.41,3.44l1.07-1.51c1.03-1.12,.02,.48-1.24,2.39-1.16,1.99-2.54,4.33-2.57,4.51,.63-1.5-.7,.46-1.92,2.21-1.16,1.79-2.13,3.42-1.19,1.01-.59,1.1-1.28,2.51-1.02,2.33-.95,1.58-1.32,2.05-.52,.35-3.3,5.94-1.85,3.97-4.64,9.44-.08-.06,.44-1.19,.62-1.81-.61,1.44-1.22,2.87-1.97,4.53-.71,1.68-1.51,3.6-2.52,5.99,.06-.31-.25,.22,.35-1.22-1.67,4.14-2.77,7.8-3.74,11.59-.96,3.79-1.78,7.72-2.59,12.54,.01-1.46-.16-.64-.37,.6-.1,.6-.21,1.41-.32,1.89-.13,.5-.33,.91-.46,.99-.11,.35-.24,.7-.38,1.08l-.1,.27-.03,.11-.06,.22c-.07,.04-1.34,.26-2.22,.42l1.06-.08,.53-.04c.18-.01,.37-.03,.43-.02-1.1,.19-2.17,.37-3.21,.55-1.08,.18-2.12,.4-3.13,.65-2.04,.46-3.99,.9-5.92,1.33,1.09-.34,2.19-.66,3.3-.92-1.41,.28-2.8,.66-4.19,1.02-1.39,.37-2.79,.69-4.16,1.15,1.56-.45,3.17-.74,4.76-1.11-2.23,.66-2.08,.75-2.12,.84-.03,.12-.28,.13-3.21,.98,1.18-.39-4.41,1.27-6.72,1.93h.01c-2.12,.81-4.23,1.84-7.41,3.01-.85,.25,.49-.67-.07-.51-.95,.63-3.44,1.68-5.91,2.93-1.23,.64-2.47,1.28-3.57,1.85-1.07,.61-1.97,1.19-2.55,1.6,.79-.53,.74-.73,.45-.61l-1.52,1.14c-1.91,.95-2.16,1.14-1.96,.81-5.48,3.34,1.96-.69-4.58,3.18,.49-.34,.21-.25,1.25-.93-6.51,4.03-11.97,8.64-17.21,13.29-1.8,1.1,4.53-4.15,2.54-2.81-3.84,3.33-7.46,7.15-10.9,11.05-3.4,3.94-6.5,8.07-9.36,12.05l1.1-1.46c-.09,.35-.42,.89-.89,1.56-.47,.68-1.05,1.52-1.72,2.44-1.37,1.82-2.85,4.11-4.02,6.3,.59-1.06,.56-1.51,.44-1.2-.91,1.42-1.68,2.93-2.52,4.48-.86,1.54-1.6,3.21-2.42,4.96-1.62,3.51-3.17,7.52-4.8,12.33,.08-.42,.18-.83,.29-1.23-1.44,3.69-3.32,9.88-4.24,14.06-.17,1.26-.7,3.65-.2,2.24-1.72,6.37-2.4,12.66-2.64,18.74-.27,6.09,0,11.98,.11,17.83-.15-1.39-.34-3.32-.29-2.2,.3,3.31,.59,6.62,1.13,9.89,.12-.81-.04-1.31-.14-3.4,.32,1.23,.76,3.99,1.14,6.42-.8-4.39-.41,.1-.14,2.02,.01-.33,.21,.31,.25,.13,.56,5.18,.52,.78,1.84,7.73l-.2-.34c.31,1.29,.73,2.5,1.12,3.73,.38,1.24,.77,2.51,1.19,3.87,.07,.6-.21-.05-.48-.89-.26-.84-.57-1.84-.7-1.9,.52,1.94,1.29,3.78,1.99,5.58,.67,1.82,1.42,3.54,1.96,5.28-.34-.78-.74-1.74-1.13-2.71-.4-.96-.71-1.95-1.03-2.75,.25,.96,.44,1.71,.61,2.34,.2,.62,.37,1.11,.53,1.57,.34,.92,.64,1.72,1.16,3.1l-.1-.27c.79,2.13,1.73,4.21,2.59,6.31l-.63-1.62c2.74,4.26,4.57,9.2,8.62,14.66-3.84-5.35-.79-.79-1.31-1.06,.42,.76,.96,1.71,1.34,2.4,.38,.69,.63,1.09,.37,.81,1.01,1.26,1.73,2.39,2.56,3.65,.84,1.25,1.87,2.58,3.37,4.28,.01,.25,2.17,2.66,1.51,2.27,2.74,3.16-.5-.87-.18-.67,4.27,4.78,9.72,11.67,17.18,17.22,1.54,1.27,2.85,2.16,3.98,2.95,1.14,.77,2.07,1.46,3.06,2.04,1.95,1.19,3.81,2.4,6.99,4.25,2.02,1.46-1.91-.78-1.91-.78,3.3,2.3,5.95,3.78,9.34,5.47-.72-.27-.05,.15,.93,.77,2.73,1.35,1.94,.67,5.53,2.45-.67-.19-1.55-.39-2.93-.92,1.65,.72,3.3,1.39,4.97,2.08,1.69,.63,3.39,1.26,5.13,1.9,.85,.53-2.17-.6-3.43-.99,.98,.37,2.1,.81,3.25,1.25,1.15,.45,2.36,.8,3.47,1.18,1.12,.35,2.14,.7,2.99,.92,.85,.21,1.49,.35,1.82,.38-.84-.3-1.69-.56-2.52-.89,1.45,.45,.66,.49-.41,.15-3.44-1-4.84-1.79-4.98-1.99,.82,.31,1.67,.56,2.5,.84-.59-.37-1.52-.73-2.63-1.2-1.11-.47-2.42-.97-3.81-1.48-1.4-.51-2.83-1.15-4.25-1.73-1.42-.57-2.76-1.22-3.94-1.84l2.16,.64-5-2.18c-.95-.68-1.54-1.24,.79-.04-3.22-2.02-3.01-1.5-5.72-3.34-.29-.22-.14-.15,.15,.01l-3.2-1.87c.66,.31-.36-.58,1.53,.69-2.78-1.82-4.97-3.35-6.8-4.51-1.79-1.22-3.11-2.2-4.02-3.07l.46,.32c-.94-.67-1.63-1.21-2.15-1.63-.52-.41-.89-.69-1.14-.88-.51-.37-.56-.36-.57-.3,0,.11,.15,.48-2.59-1.67l-2.93-3.7-.86-.42c-.67-.68-1.98-2.03-1.65-1.87-2.65-2.36,.33,.52-1.26-.8-3-3.47-8.51-9.38-8.66-10.58-1.18-1.17,2.51,3.61-.58-.2-.2-.72-1.11-1.81-2.17-3.22-1.03-1.43-2.37-3.08-3.37-4.93,.87,.97,3.05,4.27,.87,.7-.86-.94-1.91-2.69-2.99-4.56-.99-1.93-2.03-3.96-2.88-5.5-.2,.01-1.09-1.69-2.28-4.04-1.09-2.4-2.49-5.46-3.56-8.22,.14,.15-.9-2.44-1.91-5.81-.26-.84-.57-1.71-.82-2.62-.24-.9-.49-1.82-.73-2.71-.24-.89-.46-1.76-.68-2.57-.17-.82-.34-1.59-.48-2.26l.1,.14c-.28-.48-.79-2.09-1.23-4.12-.2-1.02-.42-2.13-.63-3.24-.22-1.11-.43-2.22-.57-3.25,.26,.13,.38,.86,.9,3.04-.26-1.27-.44-2.55-.6-3.83-.22-.89-.5-2.08-.8-4.58l.36,.94c-.13-1.28-.26-2.57-.4-3.88-.07-.66-.15-1.32-.22-1.99-.06-.67-.09-1.36-.14-2.05-.08-1.39-.17-2.83-.23-4.33,0-1.51,.03-3.08,.09-4.74-.25-.39-.76,5.3-.86-1.77,.17-.26,.36-.51,.41,1.34-.04-.61-.05-2.16,.07-3.37,.04,.94,.04,1.88,.11,2.82,.22-3.03-.12-1.59,.02-4.02,.19,.06,.23-1.79,.37-1.43-.01,.62-.19,2.11-.16,3.04,.1-1.36,.18-2.87,.35-4.16,.18-1.29,.35-2.38,.47-2.91-.13,.23-.26-.03-.1-2.02,.7-5.12,.48-1.72,1-4.69,.02-1.26,.82-4.46,.53-4.61,.28-1.49,.46-1.73,.68-2.28,.27-1.31,.87-4.37,1.54-6.69,.62-2.33,1.02-3.98,.47-2.58l-.21,.66c.03-.12,.07-.27,.11-.43v.02s0-.02,0-.02c2.16-8.54,6.36-17.12,10.46-24.77l.08,.06c2.44-4.59,5.96-9.91,8.05-12.99,.87-1.27,2.36-2.77,2.03-2.19,2.4-3.16,2.58-3.6,6.53-7.76-2.55,3.07,.99-.96-2.62,3.14,.86-.96,1.55-1.74,2.18-2.4,.65-.66,1.21-1.23,1.78-1.81,.57-.58,1.13-1.19,1.78-1.9,.68-.69,1.45-1.49,2.39-2.5-.59,.75,.16,.13,1.27-.89,1.14-.99,2.68-2.34,3.57-3.18l-2.82,2.26c1.02-.92,1.99-1.78,2.92-2.62,.95-.81,1.92-1.55,2.87-2.32l-.81,1.09c4.15-3.22,7.96-6.03,11.58-8.59,3.68-2.47,7.2-4.65,10.94-6.13,1.19-.73-.1-.12-1.44,.49-1.33,.62-2.65,1.35-1.63,.61,1.05-.6,2.19-1.08,3.26-1.57,1.08-.47,2.11-.96,3.07-1.32,1.93-.73,3.47-1.29,4.16-1.6,6.2-2.3,5.55-2.81,12.2-4.83-.88,.14-1.79,.08,3.17-1.52,4.73-1.19,5.92-.99,2.97-.16-1.13,.29-1.68,.39-1.64,.34-1.51,.43-3.45,1.11-1.58,.67l.57-.29c1.17-.27,3.38-.78,5.11-1.17,1.73-.38,3-.55,2.25-.31,3.56-.85,1.49-.51-1.18-.02,2.13-.4,3.94-.74,5.66-1.06,1.92-.31,3.74-.61,5.72-.93,.1-.29,.2-.58,.31-.88,.09-.24,.19-.49,.28-.73,.15-.37,.31-.77,.46-1.21,.15-.43,.29-.91,.38-1.44,.07-.46,.14-.93,.21-1.42-.1,.5-.21,.97-.29,1.2-.09,.28-.1,.19-.04-.3,.7-4.63,.91-5.64,.94-6.31,.06-.66-.04-.96,.66-4.07,.51-1.74,.55-1.39,.61-1.4,.09,0,.15-.37,.96-3.47,1.26-3.7,.52-.7,.2,.81,1.37-5.66,3.6-10.24,4.96-13.25-.38,.94-.74,1.9-1.1,2.85,.64-1.71,1.22-3.09,1.86-4.47-.31,.5-.63,.99-.93,1.5,.75-1.63,1.41-3.01,1.49-2.93,.69-1.73-.99,1.11,.46-2.29,.59-1.05,1.38-2.71,2.11-4.18,.69-1.49,1.49-2.69,1.82-2.99-.48,.82-.83,1.42-1.08,1.86-.23,.45-.36,.74-.43,.92-.15,.35-.04,.24,.08,.11,.25-.27,.57-.66-.83,2.21,.26-.56,.56-1.18,.89-1.85,.33-.68,.71-1.41,1.2-2.18,.17-.22-.07,.25-.3,.69,1.92-3.06,2.25-3.82,2.58-4.63,.16-.41,.32-.82,.67-1.55,.33-.74,.93-1.73,1.97-3.29-.37,.89,1.24-1.27,1.87-2.31-1.66,2.52-1.04,1.05,.37-1.35,.67-1,1.25-1.73,1.7-2.33,.45-.6,.79-1.08,1.08-1.5,.58-.84,.98-1.46,1.74-2.46l-1.78,2.26c.22-.44,.7-1.14,1.37-2.07,.34-.46,.72-.99,1.14-1.56,.44-.56,.96-1.15,1.49-1.8,.29-.13-1.92,2.37-1.09,1.5,1.09-1.51,2.53-3.06,4.09-4.73,.4-.41,.78-.86,1.21-1.27,.43-.41,.87-.83,1.31-1.25,.88-.86,1.77-1.76,2.64-2.72,1.78-1.62,.38,.06,1.95-1.35,4.22-3.98,4.76-4.09,9.51-7.89-1.53,.88-1.75,1.12,1.52-1.69l-3.93,3.12c-.65,.53-1.33,1.02-1.95,1.58l-1.85,1.69c.77-.75,1.52-1.53,2.32-2.25l2.45-2.1c-.6,.47-1.21,.95-1.82,1.42-.61,.47-1.2,.96-1.72,1.47-1.06,.99-2.02,1.87-2.71,2.45,2.17-2.18,1.98-1.93,.76-1.12,.84-.62,1.63-1.28,2.42-1.97,.81-.66,1.63-1.32,2.46-1.99,.83-.67,1.68-1.36,2.56-2.07,.44-.34,.89-.7,1.37-1.04,.49-.31,.99-.62,1.51-.93l.21,.57c1.54-.94,2.96-1.86,4.35-2.8,1.39-.94,2.87-1.72,4.34-2.64,2.92-1.87,6.3-3.51,10.56-5.43-.94,.34-1.84,.79-2.77,1.18,.26-.19,.71-.44,1.29-.74,.29-.14,.61-.3,.95-.47,.35-.14,.73-.29,1.12-.44,1.55-.61,3.32-1.29,4.71-1.9-.19,.31,1.58-.4,2.86-.64-.19-.07,6.5-2.16,7.23-2.7l4.12-.8c3.66-.96,5.77-1.39,7.83-1.97,1.03-.28,2.05-.55,3.26-.84,1.22-.26,2.64-.46,4.45-.7-2.15,.51,1.15,.2-3.65,1.02,2.41-.33,4.58-.59,4.6-.73,.71-.02,2.37-.36,4.14-.61,1.77-.21,3.65-.46,4.77-.43,1.02-.14,1.34-.36,4.07-.48,.3,.03,0,.1,0,.1,0-.13,4.28-.18,1.88-.38,3.76,.19,8.99,.39,14.08,.88,5.1,.45,10.02,1.43,13.14,2.36,5.19,1.07,11.33,2.93,15.82,4.67-.31-.06-.05,.09-.89-.26,1.53,.64,2.56,1,3.32,1.28,.76,.28,1.28,.43,1.83,.59,1.1,.33,2.33,.66,5.69,2.42,3.35,1.96-3.7-1.59-1.58-.43,.33,.53,2.41,1.44,4.88,2.73,.62,.31,1.27,.64,1.93,.98,.65,.35,1.3,.73,1.95,1.09,1.28,.75,2.55,1.47,3.56,2.27l-1.06-.63c1.58,1.14,3.6,2.37,5.9,3.75,1.11,.75,2.29,1.54,3.51,2.36,1.23,.83,2.5,1.7,3.71,2.73,0,0-.28-.15-.09,.05,3.69,2.33,9.94,7.73,14.24,12.11-1.5-1.2-2.07-1.87-1.41-.88,.99,.95,.92,.74,1.09,.77,.17,.03,.58,.31,2.45,2.32,.54,.72,1.49,1.79,2.23,2.83,.74,1.04,1.37,1.98,1.43,2.27-1.09-1.33-2.15-2.68-3.34-3.93,.37,.55,.86,1.12,1.35,1.74,.49,.62,1.02,1.27,1.56,1.9,1.07,1.29,2.25,2.51,2.99,3.65l-.33-.19c2.32,3.19,3.63,4.71,4.79,6.44,.6,.85,1.21,1.71,1.96,2.81,.76,1.09,1.51,2.51,2.57,4.36l-.33-.82c2.66,3.86,1.66,3.53,4,7.54,.08,.48,.19,.95,.25,1.43,.63,1.39,1.83,3.8,3.02,6.54,1.12,2.77,2.39,5.83,3.18,8.47-.3-.72-.66-1.65-1.04-2.68-.42-1.02-.89-2.15-1.37-3.31-.48-1.15-.94-2.34-1.43-3.45-.52-1.09-1.01-2.13-1.44-3.03,.6,1.39,1.65,3.75,2.46,6,.87,2.23,1.68,4.29,1.97,5.03-.37-1.17-1.01-2.58-1.37-3.73,.38,.85,.83,1.76,1.21,2.77,.38,1.01,.76,2.1,1.17,3.26,.86,2.3,1.54,4.97,2.3,7.91-.27-.21-.11,.63,.14,2.11,.24,1.48,.66,3.58,1.12,5.85,.22,1.14,.46,2.44,1.14,3.63,.33,.6,.81,1.15,1.36,1.57,.55,.42,1.15,.7,1.71,.9,1.14,.42,2.2,.57,3.03,.79,.85,.2,1.57,.39,2.1,.57,10.53,1.84,20.5,5.51,31.67,10.95-3.7-2.48,3.27,1.58,2.85,.74,2.6,1.31,3.55,1.88,3.77,2.04,2.5,1.55,4.95,3.16,7.32,4.89,1.65,1.28-2.39-1.38-2.23-1.12,2.65,1.73,3.16,2.16,3.43,2.46,.28,.29,.33,.45,1.99,1.71-.29-.33,.21-.09,1.13,.53,.9,.65,2.23,1.64,3.62,2.79-1.27-1.12-2.56-2.22-3.85-3.32,1.81,1.27,3.08,2.23,4.06,3.04,.96,.84,1.66,1.5,2.35,2.16,.71,.65,1.37,1.36,2.3,2.23,.94,.86,2.12,1.94,3.76,3.45l-2.15-1.82c.84,.78,2.02,1.89,3.35,3.19,1.28,1.35,2.79,2.82,4.18,4.41,2.87,3.08,5.49,6.36,7.04,8,.44,.69,.95,1.64-.31,.06,3.25,4.39,6.68,9.43,9.56,14.46,2.89,5.02,5.24,10,6.68,14.01l-.46-.71c.84,1.86,1.54,3.22,2.31,5.66-.1-.11-.41-.73-.11,.17,.19,.51,.67,1.78,1.23,3.23,.54,1.46,1.03,3.16,1.38,4.47l-.81-2.17c1.46,5.13,2.4,9.11,3.27,12.9,.4,1.9,.83,3.75,1.12,5.69,.16,.97,.35,1.96,.47,2.99,.12,1.03,.24,2.1,.36,3.21-.2,0-.2,2.11-.17,4.73,0,2.62,0,5.76-.13,7.85l-.06-.15c-.19,6.19-.67,11.44-1.41,16.55-.44,2.55-.88,5.07-1.33,7.66-.59,2.56-1.16,5.21-1.9,8.01-.66,1.67-1.42,3.96-2.33,6.59-.5,1.3-1.04,2.68-1.61,4.13-.28,.72-.56,1.46-.85,2.21-.33,.73-.66,1.48-1,2.23-2.51,6.1-6.1,12.3-9.25,17.07,1.05-1.41,.13,.42-.99,2.14-.82,1.07-1.74,2.71-2.63,3.88-.87,1.19-1.54,2.04-1.57,1.75l.59-.76c-.79,.68-1.97,2.15-3.36,3.82-1.46,1.61-3.04,3.5-4.49,5.09l-.12,.87c-4.16,3.86-9.6,8.88-14.93,13.08-1.34,1.03-2.69,1.99-3.96,2.92-1.27,.93-2.48,1.82-3.67,2.53-2.35,1.46-4.3,2.71-5.74,3.31-1.15,.73-2.47,1.51-3.78,2.3-.66,.39-1.31,.79-1.95,1.17-.64,.37-1.27,.72-1.86,1.06v-.32c-3.38,1.69-5.98,2.81-8.8,3.95-2.83,1.13-5.9,2.28-10.36,3.63,.59-.25,1.18-.48,1.76-.74-2.51,.76-4.06,1.39-5.57,1.99-1.51,.59-2.99,1.18-5.38,1.67-.51-.04-1.01-.08-1.52-.13-1.13,.22-2.27,.41-3.41,.58-1.14,.18-2.4,.34-3.68,.87-.64,.28-1.29,.67-1.82,1.23-.54,.55-.92,1.23-1.16,1.89-.5,1.32-.52,2.69-.63,3.74-.48,4.47-1.75,8.9-2.93,13.3-.01-.16-.05-.46,.37-1.89-.33,1.03-.8,2.55-1.36,4.21-.61,1.64-1.19,3.46-1.83,5.06-1.19,3.24-2.22,5.74-1.64,5.14-.2-.03-1.09,2.18-2.32,4.89-1.19,2.73-2.74,5.98-3.9,8.19l.13-.81c-.84,1.93-1.3,2.92-1.91,4.07-.3,.58-.63,1.19-1.07,1.98-.46,.78-1.05,1.72-1.83,2.97-.79,1.15-.85,.9,.22-.61-1.31,1.92-1.82,2.66-2.35,3.54-.54,.88-1.13,1.87-2.92,4.05l1.13-1.77c-2.9,3.79-2.64,3.51-4.15,5.68-.89,1.22-2.46,2.86-3.81,4.31-1.41,1.39-2.67,2.53-3,2.69-.32,.59-2.07,2.54-4.18,4.42-.35,.18,.39-.53,.73-.92-1.5,1.32-2.81,2.46-3.97,3.52-1.2,1.02-2.27,1.94-3.28,2.8-.5,.43-.99,.86-1.48,1.27-.49,.4-1,.77-1.5,1.16-1.01,.76-2.05,1.5-3.19,2.26-.15-.01-.45,.17-.85,.41,1.28-.94,2.49-1.83,3.59-2.64,.55-.4,1.07-.79,1.55-1.14,.47-.38,.9-.73,1.29-1.04,1.56-1.27,2.46-1.99,2.28-1.83-.17-.19-4.15,3-1.23,.16-2.95,2.85-8.47,7.22-12.73,9.83-.22,.1-.44,.2-.61,.26l.43-.29c-1,.56-1.87,1.11-2.69,1.64-1.39,.76-2.25,1.3-3.62,1.98-.31,.04-1.62,.7-3.13,1.49-.38,.2-.77,.41-1.16,.61-.4,.19-.8,.37-1.19,.56-.78,.36-1.51,.7-2.09,.97,.31,.17-2.74,1.52,.19,.43-.38,.15,.42-.23,1.96-.95,.34-.17,.75-.36,.98-.48-.04,.03-.09,.06-.15,.1,1.5-.74,3.42-1.8,5.62-2.94-1.73,1.04-3.5,2.21-6.12,3.28-1.11,.71-2.35,1.49-3.05,1.91-.42,.14-.88,.31-1.37,.48-.5,.16-1.03,.32-1.58,.5-1.08,.36-2.23,.73-3.29,1.08-2.13,.69-4.01,1.13-4.48,1.18-1.81,.7-3.85,1.29-5.92,1.89-2.06,.66-4.21,1.11-6.26,1.63-1.02,.26-2.03,.5-3.01,.68-.97,.2-1.91,.4-2.79,.58-1.76,.42-3.32,.67-4.52,.96-2.2,.34-2.55,.17-3.38,.18,1.27-.21,2.78-.39,3.45-.55-1.1,.16-2.45,.38-3.9,.54-1.45,.13-2.98,.26-4.41,.39-2.85,.24-5.3,.3-5.82,.53-2.8,0-2.01-.14-1.49-.18,.52-.09,.79-.05-3.06-.1l1.04-.1c-7.55-.37-13.68-.61-19.98-1.41-6.28-.83-12.8-2.12-20.58-5.28,1.07,.45,1.63,.63,1.83,.77-9-3.23-17.94-7.47-26.22-12.76-8.3-5.25-15.96-11.49-22.37-18.41-3.61-3.96-4.11-4.28-6.4-6.64l-.5-1.1c-1.26-1.38-2.53-2.75-3.71-4.2-2.5-3.1-4.22-6.11-6.05-9.32-1.75-3.26-3.63-6.74-6.01-11.16l.39,1.25c-.38-.82-.93-1.85-1.44-2.98-.51-1.12-1.05-2.3-1.53-3.37-.91-2.15-1.56-3.84-1.34-3.6-.18-.33-.65-1.02-1.04-2.38l.11-.16c-.55-1.37-1.14-2.74-1.64-4.12-.49-1.39-.95-2.79-1.36-4.22-.77-3.35-.52-3.13-.41-3.29,.12-.16,.12-.68-.88-5.61-.41-1.83-1.07-4.43-1.68-6.38-.6-1.95-1.12-3.25-.98-2.55,.41,1.47,.86,3.78,.73,3.93-.29-1.11-.58-2.21-.92-3.31-.3-.24-.75-.96-.87-.59-.14,.37,.11,1.77,.85,5.88l1.48,5.66,.17,1.9-1.02-4.83c.36,2.78,.9,4.49,1.46,6.41,0,.49,.09,1.32,.33,2.47,.61,1.85,1.28,3.69,2.05,5.48,.06,.73-1.2-2.37,0,1.38,1.14,2.47-.52-2.57,1.17,1.58,.78,2.72,.33,2.02,1.75,5.01,.07,.48-.27-.14-.82-1.34,1.22,2.69,3.13,7.16,4.05,8.41,.98,2.8,4.68,8.78,4.19,8.73,.53,.77,2.94,4.3,4.47,6.54-.8-.95-.83-.92-.49-.3,.36,.6,1.14,1.74,1.98,2.98,1.71,2.46,3.8,5.22,3.18,4.87,.67,.65,1.53,1.61,2.52,2.76,1.01,1.14,2.16,2.45,3.38,3.82,1.26,1.33,2.56,2.76,3.89,4.07,1.35,1.29,2.63,2.59,3.89,3.62-.29-.22-.88-.64-1.27-1.06,2.66,2.51,3.33,3.36,5.08,4.94,.59,.03,5.03,3.6,7.67,5.18,3.38,2.96-2.46-1.24-1.55-.12,0-.19,1.62,.9,3.1,1.9,1.5,.97,2.88,1.82,2.33,1.28,2.68,2.15,2.4,1.72,3.7,2.97,.75-.07,2.76,1.62,5.36,2.8,2.11,1.3,2.34,1.55,2.64,1.79,.3,.24,.67,.49,3.15,1.64,2.26,1.3-2.17-.73-2.17-.73Zm123.83-6.34h0c-.91,.64-1.73,1.12-2.25,1.44,.47-.29,1.15-.67,2.25-1.44Zm8.88-6.25c-1.06,.78-2.39,1.76-3.79,2.79-.36,.15-.09-.18,.79-.82-.44,.4,1.65-1.07,3-1.97Zm-20.27,10.55c1.48-.82,2.01-1.04,2.24-1.1-.7,.38-1.53,.82-2.61,1.41-.04,.03-.12,.09-.16,.12,.12-.12,.26-.25,.53-.44Z"/>
    <path class="cls-1" d="M283.91,450.66c-.22,.11-.34,.17-.63,.31,.32-.13,.63-.25,.95-.37,.17-.11,.35-.23,.51-.33-.28,.13-.57,.27-.83,.39Z"/>
    <path class="cls-1" d="M6.08,196.32l.07-.22c-.06,.18-.12,.34-.17,.45,.05-.14,.06-.14,.1-.23Z"/>
    <polygon class="cls-1" points="403.16 338.97 403.11 338.92 402.34 339.48 403.16 338.97"/>
    <path class="cls-1" d="M2.01,255.15c0,.12,.01,.34,.07,.78,.01-.04-.02-.37-.07-.78Z"/>
    <path class="cls-1" d="M9.11,279.92c.4,1.15,.91,2.26,1.36,3.39-.57-1.47-1.06-2.52-1.36-3.39Z"/>
    <path class="cls-1" d="M17.98,297.67c.17,.19,.24,.23,.31,.27,0-.01-.01-.02-.02-.03l-.29-.23Z"/>
    <path class="cls-1" d="M133.42,47.69c.16-.22,.31-.43,.45-.62,1.04-1.48,.32-.48-.45,.62Z"/>
    <path class="cls-1" d="M82.6,115.32c.93-.37,1.84-.73,2.81-1.11-1.59,.53-2.82,.95-2.81,1.11Z"/>
    <path class="cls-1" d="M223.94,.28s0,0-.01,0c.23-.02,.42-.04,.65-.06l-.64,.05Z"/>
    <path class="cls-1" d="M89.58,112.94c-1.61,.43-2.96,.82-4.18,1.26,1.31-.41,2.87-.82,4.18-1.26Z"/>
    <path class="cls-1" d="M84.09,350.24l.9,.33s.05-.02,.12,0l-1.02-.33Z"/>
    <path class="cls-1" d="M85.11,350.57c.34,.11,.68,.19,1.02,.29-.47-.14-.87-.26-1.02-.29Z"/>
    <path class="cls-1" d="M88.29,351.44l-2.16-.58c.74,.23,1.65,.51,2.16,.58Z"/>
    <path class="cls-1" d="M60.27,339.16l-.31-.06c.15,.06,.26,.09,.31,.06Z"/>
    <path class="cls-1" d="M53.52,334.88c1.52,1.15,3.9,2.78,6.18,4.16l.26,.05c-.58-.25-1.79-1.1-3.06-1.96-.64-.43-1.29-.87-1.88-1.27-.58-.41-1.1-.76-1.49-.99Z"/>
    <path class="cls-1" d="M29.74,311.81l1.05,1.29,1.1,1.24,2.21,2.48c-.7-.93-1.62-2.15,.43,.05-2.69-3.19-2.45-2.83-2.26-2.48,.1,.18,.18,.35-.13,.08-.29-.28-1.03-.96-2.4-2.66Z"/>
    <path class="cls-1" d="M17.96,295c1.91,3,.11-.11,.26,.02-1.19-1.92-1.48-2.38-.26-.02Z"/>
    <path class="cls-1" d="M27.6,155.55l-.02,.44c1.67-2.17-.06-.08,.02-.44Z"/>
    <polygon class="cls-1" points="46.87 134.56 44.68 136.14 43.83 137.13 46.87 134.56"/>
    <path class="cls-1" d="M61.8,126.63c-.35,.2-.67,.43-1,.65,1.27-.83,2.61-1.55,3.92-2.33l-2.91,1.69Z"/>
    <path class="cls-1" d="M252.8,4.06l-.76-.44c-1.84-.23-2.27,.06,.76,.44Z"/>
    <path class="cls-1" d="M337.94,63.9c.22,.55,.68,1.49,1.21,2.49,.53,1,1.05,2.11,1.54,2.9-.54-1.08-.99-2.2-1.51-3.13-.5-.94-.93-1.74-1.25-2.26Z"/>
    <path class="cls-1" d="M424.36,319.56l1.44-1.61c-.94,.98-1.83,1.99-2.84,2.89,.47-.43,.97-.83,1.4-1.29Z"/>
  </g>
  <g>
    <path class="cls-1" d="M224.86,19.12c-.69,.12-.29,.29,1.64,.18l1.36-.37-3,.19Z"/>
    <path class="cls-1" d="M237.85,19.78c2.27-.03,4.91-.03,3.47-.48-2.28,.12-2.82-.06-5.26,.21-1.93-.05-3.37-.2-3.04-.32-.68,.07-3.01-.09-4.05,.14,2.52,.21,5.69,.25,9.02,.24,.71,.12,.01,.16-.15,.21Z"/>
    <path class="cls-1" d="M368.1,129.46c-.38-.15-.76-.26-1.15-.38,.31,.11,.71,.22,1.15,.38Z"/>
    <path class="cls-1" d="M441.33,212.2c-.16-.87-.26-1.23-.29-1.26,.16,.8,.3,1.46,.29,1.26Z"/>
    <path class="cls-1" d="M442.65,231.92c.01-.42,.03-.78,.04-1.17-.03,.44-.06,.89-.04,1.17Z"/>
    <path class="cls-1" d="M368.1,129.46l2.91,1.08c.24-.03-1.48-.58-2.91-1.08Z"/>
    <path class="cls-1" d="M263.57,23.79c-.64-.17-1.17-.3-1.66-.41,.52,.14,1.02,.28,1.54,.43,.03,0,.06-.02,.11-.02Z"/>
    <path class="cls-1" d="M335.34,101.99l-.22-.91c-.1-.26-.21-.5-.32-.72l.54,1.64Z"/>
    <path class="cls-1" d="M319.34,66.44c.5,.73,.89,.84,1.18,1.05-.38-.35-.77-.88-1.25-1.49-.05,.02-.04,.15,.07,.44Z"/>
    <path class="cls-1" d="M271.56,27.81l-1.04-.38c.27,.1,.73,.26,1.04,.38Z"/>
    <path class="cls-1" d="M345.44,125.3c.06,.05,.2,.09,.35,.14,0-.03-.13-.09-.35-.14Z"/>
    <path class="cls-1" d="M180.03,31.08s.03,.02,.03,.04c.19-.13,.25-.18-.03-.04Z"/>
    <path class="cls-1" d="M224.4,19.85l-.63,.1c-.06,.06-.12,.12-.11,.17l.74-.28Z"/>
    <path class="cls-1" d="M436.69,267.34c.02-.07,.03-.09,.06-.15,.27-.91,.11-.4-.06,.15Z"/>
    <path class="cls-1" d="M193.57,436.82c1.73,.72,.25,.34-.98-.07-1.23-.41-2.24-.72,.34,.47-.46-.25,5.01,1.29,.64-.4Z"/>
    <path class="cls-1" d="M264.55,24.13c.51,.17,1.03,.34,1.55,.51-.7-.24-1.18-.4-1.55-.51Z"/>
    <path class="cls-1" d="M192.93,437.23h0c.18,.09,.36,.16,.54,.23-.23-.09-.35-.14-.54-.23Z"/>
    <path class="cls-1" d="M383.22,328.18c.17-.03,.48-.16,.8-.28-.04-.01-.22,.05-.8,.28Z"/>
    <path class="cls-1" d="M428.33,286.78c-.26,.44-.56,.86-.84,1.29,.34-.5,.63-.91,.84-1.29Z"/>
    <path class="cls-1" d="M352.75,338.25c-.83,.12-1.11,.17-2.24,.34,.11,0,.21,0,.35-.01,.41-.08,.94-.2,1.89-.33Z"/>
    <path class="cls-1" d="M335.86,360.65c.06-.17,.13-.39,.19-.59,.07-.33,.15-.71,.23-1.04l-.42,1.63Z"/>
    <path class="cls-1" d="M122.62,113.17c.2-.73,.37-1.17,.52-1.52-.29,.49,.55-4.47-.52,1.52Z"/>
    <path class="cls-1" d="M263.54,23.95c.21,0,.5,.03,1,.18-.37-.12-.74-.21-1.09-.32-.11,.01-.14,.04,.08,.14Z"/>
    <path class="cls-1" d="M351.74,340.68l-5.39,.67c1.51-.17,3.47-.41,5.39-.67Z"/>
    <path class="cls-1" d="M37,294.46l-.74-1c.27,.4,.53,.76,.74,1Z"/>
    <path class="cls-1" d="M340.07,350.09c-.24,.95-.39,1.96-.63,3-.02,.22-.05,.48-.04,.63,.28-1.2,.47-2.42,.67-3.63Z"/>
    <path class="cls-1" d="M123.15,111.65s0,.01,0,.01c0,0,0,0,0-.01Z"/>
    <path class="cls-1" d="M133.59,77.56c-1.17,2.32-1.34,2.91-1.27,3.06,.07,.14,.37-.17,.24,.37-1.24,2.82-1.57,3.46-1.74,3.61-.18,.15-.19-.19-.68,.75-1.4,3.61-2.03,6.53-2.94,9.25-.12,.19-.3,.71-.19,.06-.22,1-.57,2.22-.94,3.56-.33,1.36-.77,2.83-1.12,4.34-.74,3.01-1.35,6.15-1.61,8.49-.1,.34-.16,.51-.2,.59,.32-.72,.53-.8,.63-.62-.44,2.27-.48,4.26-.8,5.1,.17-1.41,.1-1.54,.12-2.21-.09,.81-.16,1.62-.21,2.43-.26,1.08-.24,.24-.13-.86,.11-1.11,.34-2.47,.21-2.49-.34,2.35-.54,4.96-.37,7.42,.04,.61,.1,1.22,.17,1.81,.06,.47,.12,.76,.19,1.14v.07s-.03,0-.05,0h-.13s-.26,.04-.26,.04c-.17,.02-.34,.03-.5,.05-.47,.03-.92,.07-1.35,.1-.2-.07,.23-.16,.91-.25,.21-.03,.46-.06,.72-.1,.19-.04,.52,.02,.37-.27-.04-.21-.07-.39-.1-.54-.04-.25-.07-.43-.09-.5-.02-.09-.04-.05-.04,.17,.02,.31-.01,.39-.01,.63,0-.1-.13-1.37-.12-2.27-.01-.96,.02-1.92,.11-2.87-.36,2.18-.31,1.31-.28,.39,.06-.91,.12-1.89-.29,.13-.04,.96-.06,1.81-.02,2.59,0,.39,.05,.76,.07,1.11,.01,.18,.03,.35,.05,.52l.02,.13,.03,.12s.02,.05,0,.06h-.05s-.1,.04-.1,.04h-.05s-.02,.02-.02,.02h-.1s-.19,.03-.19,.03c-2.05,.24-4.11,.38-7.76,.86-1.62,.41,.58,.2-1.04,.61-.64,.1-1.24,.2-1.79,.29-.55,.11-1.06,.2-1.52,.29-.94,.17-1.73,.3-2.41,.39-1.37,.19-2.32,.24-3.17,.36-.86,.1-1.63,.18-2.65,.37-1.02,.21-2.3,.46-4.12,1.14-.93,.39-1.55,.74-2.6,1.15-1.06,.38-2.51,.95-5.13,1.75l1.64-.98c-1.69,.58-2.77,.99-3.55,1.31-.76,.34-1.22,.61-1.69,.86-.47,.25-.95,.5-1.76,.85-.8,.36-1.95,.76-3.65,1.54,1.1-.79,5.12-2.32,4.09-1.97-2.31,.77-3.08,1.17-3.68,1.58-.61,.39-1.08,.76-2.76,1.57l-.85,.03c-6.8,3.48-13.77,8.27-20.14,13.77,.3-.37,1.36-1.36-.25-.2-7.98,7.05-16.14,16.04-21.88,24.6-.66,1.13-1.24,2.32-1.84,3.48-.48,.78-.99,1.38-.53,.51-2.13,3.4,.03,.26-.82,1.99-1.08,2-1.6,2.55-.98,1.24-1.63,3.14-3.73,7.72-5.5,12.48-1.78,4.75-3.31,9.63-4.28,13.23l.27-1.43c-.8,2.79-.94,4.44-1.14,6.01-.22,1.57-.29,3.1-.87,5.72,.03-.34,.07-.68,.11-1.02-1,6.2-1.36,12.82-1.21,19.04,.14,6.23,.75,12.06,1.29,16.83,.39,.86,.81,3.94,1.5,6.84,.16,.73,.32,1.45,.47,2.12,.18,.67,.36,1.29,.53,1.84,.34,1.09,.62,1.85,.82,2,.4,1.75,.79,2.9,1.02,3.85,.26,.94,.42,1.66,.68,2.44,.54,1.56,1.07,3.52,3.09,8.17,.51,1.25,1.11,2.09,1.67,3.02,.59,.92,1.17,1.93,2.04,3.36l-.23,.22c.86,1.26,1.64,2.55,2.55,3.76l.97,2.24c.57,.88,1.16,1.74,1.8,2.57-.72-1.02-1.36-2.28-1.18-2.17,.66,1.03,1.48,2.11,2.23,3.23,.75,1.12,1.5,2.23,2.21,3.19,.69,.97,1.29,1.83,1.71,2.46,.41,.64,.69,1.01,.67,1.06,2.54,2.92,5.17,5.74,7.97,8.39-.14-.05-.56-.4-1.09-.87-.52-.48-1.13-1.1-1.68-1.64,2.2,2.17,2.41,2.36,2.48,2.59,.09,.21,.14,.38,2.26,2.27-.49-.58,.42,.15,.55,.2,.99,1.01,2.65,2.62,4.59,4.28,.99,.81,2.03,1.65,3.05,2.48,1.03,.82,2.11,1.54,3.07,2.24l-.86-.37c3.41,2.64,7.29,5.01,11.35,7.33,4.12,2.21,8.46,4.28,12.96,6.03-3.17-1.41-2.28-1.44,.33-.41,.31,.25,.62,.49,.94,.71,1.78,.43-2.73-1.12,.88-.08,3.37,1.24,2.16,1.16,.17,.57,1.4,.44,2.76,.95,4.18,1.32,.22,.16-.78-.08-1.08-.05,.89,.18,2.68,.8,4.57,1.44,1.9,.6,3.93,1.12,5.23,1.28l.22,.16c4.72,1.03,8.19,1.58,11.44,1.98,1.63,.17,3.2,.37,4.86,.5,.83,.06,1.68,.12,2.57,.18,.28,.02,.57,.04,.86,.06h.11s.02,.07,.03,.1c.07-.03,.12-.02,.16,.05,.02-.03,.05,.22,.08,.45,.03,.23,.06,.48,.09,.75,.13,1.07,.24,2.42,.48,3.57,.48,5.73,1.35,12.1,3.2,18.81,.71,2.34,.86,2.66,.94,2.66,.07,0,.03-.32,.45,.7-.15,.42,2.07,6.99,.75,3.64,.69,1.97,1.35,3.55,1.9,5,.56,1.45,1.19,2.71,1.78,4.05,.58,1.35,1.3,2.71,2.14,4.34,.81,1.64,1.9,3.47,3.23,5.74-.47-1.05-1.05-2.19-.65-1.65,.49,.82,.98,1.79,1.35,2.51,.39,.71,.62,1.21,.49,1.12l-.29-.41c3.18,4.98,7.03,10.62,11.23,15.63,4.17,5.03,8.7,9.39,12.5,12.19l-.43-.31,3.91,2.94,4.04,2.75c1.85,1.27,1.27,.92,.55,.53-.72-.4-1.55-.91-.23,.11,2.28,1.35,4.25,2.64,6.18,3.69,.95,.55,1.86,1.07,2.75,1.59,.91,.48,1.79,.95,2.66,1.41,3.47,1.85,6.85,3.38,10.94,4.84,3.01,1.51,8.68,3.54,14.83,4.8,6.13,1.35,12.66,2.04,17.18,2.6l-.51-.22c2.35-.02,2.83,.23,4.56,.35-.24-.15-2.54-.26-1.08-.3,4.97,.17,10.02,0,15.09-.48,2.54-.21,5.07-.59,7.62-.95,2.53-.46,5.07-.89,7.58-1.51,10.07-2.29,19.87-6.1,28.81-11.08,3.22-1.9,4.02-2.63,5-3.51,.49-.44,1.04-.9,1.96-1.56,.93-.64,2.22-1.53,4.15-2.86l-1.95,1.85c6.01-4.55,11.8-9.67,16.97-15.32,5.19-5.63,9.7-11.84,13.25-18.3-.37,.8-.28,.89-1.05,2.1,.48-.62,1.06-1.56,1.67-2.63,.6-1.07,1.29-2.23,1.83-3.35,1.08-2.26,1.93-4.19,1.85-4.25,.96-2.08,.38-.41,1.05-1.66,1.47-2.78,2.72-7.35,3.5-8.83,.13-.25-.2,.86-.4,1.39,.34-.96,1.05-3.22,1.64-5,.59-1.78,.86-3.13,.49-2.23,.41-1.32,.78-2.62,1.14-3.89,.32-1.28,.58-2.54,.85-3.76,.28-1.22,.53-2.41,.72-3.57,.21-1.16,.43-2.28,.67-3.35,.1-1.44,.41-3.78,.73-5.87,.27-2.1,.39-3.97,.23-4.44,.05,.05,.11-.06,.17-.3,.03-.12,.06-.27,.1-.45,.02-.09,.04-.11,.06-.18,.02-.05,.03-.11,.05-.18,.07,0,.15,0,.23,0h.11c.17-.01,.33-.02,.5-.04,.34-.03,.7-.05,1.06-.08,2.9-.18,6.25-.75,7.96-1.07-.57,.14,.19,.08,.92,.03,.73-.08,1.44-.16,.78,.05,1.96-.35,3.84-.71,5.14-1,1.28-.35,1.99-.59,1.62-.62,7.33-1.03,14.09-4.32,18.12-5.32,5.44-2.36,10.53-4.98,15.19-8,.59-.37,1.17-.73,1.76-1.1,.57-.39,1.13-.79,1.69-1.18,1.12-.79,2.26-1.53,3.33-2.36,2.14-1.66,4.28-3.26,6.26-5.04,0,.29-2.21,2.24-4.5,3.91-2.22,1.77-4.53,3.24-4.19,3.33,4.16-2.9,7.16-5.54,10.1-8.2,1.49-1.31,2.85-2.75,4.39-4.19,1.51-1.47,3.02-3.12,4.79-4.89,.88-.95,.67-.64,.18,0-.52,.61-1.33,1.55-1.61,1.88,6.84-7.38,12.67-14.9,16.82-22.88,.02,.04-.42,.9-.85,1.72,.43-.77,.97-1.65,1.34-2.34,.36-.7,.58-1.19,.44-1.15-.26,.51-.49,1.04-.76,1.55-.84,1.15-.07-.44,.78-2.41,.91-1.94,1.82-4.31,1.83-4.47-.39,1.46,.65-.48,1.45-2.3,.84-1.8,1.59-3.41,1.01-1.08,.44-1.08,.83-2.5,.62-2.29,.65-1.6,.92-2.08,.44-.39,.55-1.49,.87-2.49,1.07-3.23,.2-.74,.33-1.22,.45-1.68,.25-.91,.43-1.77,1.24-4.52,.09,.05-.2,1.17-.25,1.77,.16-.71,.32-1.42,.48-2.16,.15-.74,.31-1.52,.47-2.35,.38-1.65,.72-3.56,1.25-5.92,0,.3,.21-.24-.09,1.18,.76-4.09,1.17-7.62,1.38-11.25,.23-3.63,.36-7.36,.47-11.9,.2,1.34,.24,.57,.29-.6,.02-1.17-.03-2.74,.16-2.99l-.13-2.45c-.05-.82-.15-1.63-.23-2.44l-.03,1.97c-.18-2.14-.34-4.16-.63-6.08-.32-1.92-.51-3.78-.79-5.6,.26,1.04,.42,2.08,.61,3.13l-.27-1.99-.36-1.98c-.26-1.32-.45-2.64-.77-3.95,.29,1.49,.45,3,.68,4.5-.47-2.12-.57-1.98-.65-2.02-.04-.02-.09-.08-.17-.49-.09-.41-.2-1.17-.51-2.56,.27,1.12-.87-4.18-1.36-6.37h0c-.64-2.01-1.48-4.02-2.4-7.05-.15-.82,.6,.49,.5-.05-.5-.93-1.44-3.26-2.45-5.64-1.1-2.33-2.19-4.75-3-5.82,.48,.75,.67,.7,.58,.42l-1.04-1.44c-.85-1.8-.95-2.07-.66-1.86-2.95-5.2,.56,1.86-2.84-4.35,.3,.47,.2,.22,.82,1.2-3.56-6.18-7.77-11.34-11.97-16.33-.51-.84,.48,.2,1.4,1.24,.89,1.07,1.76,2.12,1.18,1.16-.38-.45-.76-.91-1.14-1.37l-1.21-1.32c-.81-.88-1.63-1.76-2.46-2.65-.82-.89-1.73-1.7-2.59-2.56-.88-.83-1.71-1.72-2.64-2.5-1.83-1.59-3.59-3.24-5.48-4.69-.93-.74-1.83-1.5-2.75-2.22-.94-.7-1.86-1.39-2.78-2.07l1.34,1.05c-.68-.15-1.96-1.26-3.66-2.53-1.71-1.24-3.72-2.81-5.81-3.83,.99,.54,1.43,.5,1.14,.4-5.31-3.31-11.24-6.24-20.23-9.18l1.16,.24c-3.44-1.32-9.21-3.07-13.11-3.89-1.18-.12-3.4-.64-2.09-.15-1.47-.43-2.97-.7-4.43-1.01-.74-.14-1.47-.3-2.2-.41-.74-.1-1.47-.19-2.2-.29-1.46-.16-2.9-.4-4.34-.46-1.35-.08-2.69-.15-4.02-.23l-.36-.02-.06-.34-.15-.79c-.12-.69-.24-1.38-.35-2.06-.22-1.38-.44-2.74-.66-4.1-.42-2.72-.79-5.42-1.11-8.12,.23,1.28,.64,3.03,.47,2.01-.55-3.04-1.19-6.06-1.95-9.06-.06,.77,.16,1.21,.38,3.15-.37-1.12-1.05-3.64-1.66-5.84,1.2,3.98,.39-.14-.03-1.9,.02,.31-.23-.26-.26-.09-.54-2.36-.72-2.52-.98-2.88-.26-.36-.56-.93-1.59-4.06l.23,.29c-.23-.57-.46-1.13-.69-1.69-.25-.55-.5-1.09-.75-1.64-.49-1.1-.99-2.23-1.53-3.44-.2-1.12,1.2,2.34,1.43,2.43-.69-1.74-1.64-3.34-2.45-4.95-.9-1.56-1.69-3.12-2.41-4.66,.85,1.35,1.84,3.41,2.62,4.79-1.36-3.44-1.61-3.8-2.91-6.22l.12,.24c-.95-1.89-2.05-3.71-3.11-5.54,.27,.47,.52,.95,.78,1.42-3.06-3.6-5.35-7.93-9.77-12.47,2.15,2.18,2.31,2.39,2.08,1.99-.23-.4-.96-1.3-.7-1.22-.98-1.29-2.5-3.23-1.98-2.75-1.1-1.03-1.91-1.98-2.83-3.04-.97-1.02-2.02-2.17-3.67-3.5-.07-.2-2.33-2.2-1.67-1.92-2.93-2.57,.58,.74,.23,.62-2.29-1.93-4.91-4.28-7.88-6.73-2.98-2.44-6.4-4.88-10.21-6.91-1.6-.94-2.95-1.57-4.08-2.16-1.17-.53-2.15-.98-3.12-1.42-.98-.41-1.95-.81-3.07-1.28-1.12-.45-2.4-.95-3.99-1.58-1.04-.51-.57-.41,.16-.19,.74,.21,1.72,.61,1.72,.61-3.38-1.61-6.03-2.61-9.42-3.59,.7,.14,.03-.16-.96-.6-1.36-.41-1.84-.45-2.42-.56-.58-.11-1.26-.27-3.05-.81,.64,.07,1.49,.08,2.83,.38-3.24-.84-6.49-1.48-9.89-2.06-.87-.34,2.1,.14,3.31,.34-3.8-.83-9.93-1.77-11.17-1.6,.82,.14,1.64,.28,2.45,.44-1.4-.2-.69-.34,.36-.23,3.32,.34,4.71,.94,4.87,1.08-.81-.15-1.62-.28-2.43-.4,1.19,.5,3.61,.94,6.32,1.49,2.72,.52,5.72,1.22,8.08,1.96l-2.09-.19,2.48,.56,2.46,.64c.99,.45,1.61,.9-.72,.18,1.65,.64,2.38,.91,3.07,1.12,.69,.22,1.32,.4,2.68,1.08,.3,.16,.15,.12-.14,.02,1.08,.39,2.17,.77,3.23,1.21-.66-.19,.41,.49-1.51-.4,5.58,2.63,9.16,3.99,11.03,5.42l-.46-.23c1.88,1.03,2.87,1.57,3.38,1.84,.52,.27,.57,.25,.57,.19,0-.1-.18-.45,2.62,1.18,1.09,.99,2.12,2.04,3.16,3.07l.87,.24c.7,.54,2.09,1.62,1.75,1.52,2.75,1.83-.36-.45,1.28,.56,.79,.73,1.76,1.55,2.78,2.39,1,.86,2.03,1.76,2.99,2.58,1.88,1.69,3.39,3.18,3.57,3.68,1.27,.9-2.82-2.96,.57,.09,.27,.65,1.22,1.56,2.4,2.7,1.13,1.18,2.59,2.53,3.73,4.12-.95-.76-3.33-3.57-.92-.51,1.9,1.47,4.76,5.89,6.66,8.54,.21-.05,1.24,1.4,2.59,3.45,.67,1.03,1.37,2.24,2.12,3.45,.73,1.23,1.43,2.53,2.13,3.71-.13-.13,1.04,2.19,2.39,5.17,.66,1.5,1.39,3.15,1.99,4.76,.65,1.59,1.17,3.13,1.58,4.34l-.11-.12c.35,.4,.96,1.85,1.58,3.67,.66,1.81,1.3,4,1.8,5.86-.25-.09-.49-.75-1.16-2.71,.34,1.15,.64,2.31,.93,3.48,.32,.8,.64,1.88,1.16,4.17l-.45-.83c1.01,4.69,2.04,9.48,2.77,15.66,.31,.31-.03-5,1.12,1.48-.1,.26-.3,.54-.61-1.16,.11,.58,.4,1.91,.54,3.16l-.64-2.62c.16,1.42,.26,1.74,.37,2.08,.06,.17,.11,.31,.17,.56,.11,.2-.08,.84,.72,.72-.09,.09,.4,.16,.86,.23,.38,.06,.72,.11,.56,.18-.14-.01-.34-.03-.56-.05-.29-.03-.62-.06-.96-.09-.17-.02-.34-.03-.51-.05h-.13s-.06-.02-.06-.02c-.01-.01,0-.04-.01-.06l-.04-.25c-.05-.33-.11-.64-.17-.92,.06,.41,.12,.84,.18,1.27,.43,.04,.87,.08,1.3,.12,.69,.08,1.37,.15,2.01,.22,1.21,.15,2.22,.29,2.72,.4-.21-.13,.03-.28,1.88-.07,4.78,.58,1.61,.42,4.37,.9,1.17,.06,4.16,.72,4.3,.44,1.39,.23,1.61,.47,2.12,.65,1.22,.23,4.08,.76,6.23,1.38,2.17,.57,3.71,.93,2.4,.41l-.61-.19c.12,.03,.25,.06,.4,.1h-.02s.02,0,.02,0c1,.22,1.99,.52,2.98,.84,.99,.32,1.98,.64,2.98,.97,1.97,.72,3.94,1.53,5.89,2.35,3.85,1.77,7.62,3.68,11.14,5.68l-.06,.08c4.31,2.23,9.07,5.78,11.96,7.69,1.13,.89,2.5,2.28,1.96,1.98,2.91,2.28,3.28,2.5,7.07,6.26-2.81-2.43,.85,.96-2.87-2.5,.87,.83,1.56,1.5,2.18,2.09,.59,.62,1.11,1.16,1.63,1.71,1.04,1.1,2.21,2.13,4,3.99-.68-.57-.13,.16,.77,1.23,.46,.53,1.01,1.15,1.53,1.75,.5,.62,.99,1.2,1.36,1.63-.66-.9-1.3-1.83-2.02-2.69,.89,.92,1.62,1.88,2.36,2.78,.73,.91,1.45,1.78,2.13,2.69-.32-.27-.68-.51-1.02-.76,1.43,1.99,2.78,3.87,4.08,5.68,1.24,1.85,2.55,3.54,3.61,5.31,.55,.87,1.09,1.73,1.62,2.57,.52,.85,.96,1.73,1.42,2.58,.45,.86,.89,1.71,1.28,2.57,.36,.88,.7,1.75,1.01,2.63,1.3,2.25-2.08-4.89-.86-2.92,.46,1.03,.9,2.08,1.31,3.1,.42,1.02,.8,2,1.07,2.92,.58,1.83,1.05,3.28,1.29,3.94,.87,2.95,1.52,4.25,2.01,5.64,.26,.69,.53,1.39,.83,2.31,.15,.46,.31,.97,.48,1.57,.15,.6,.3,1.29,.46,2.08-.07-.83,.07-1.68,1.25,3.04,.74,4.48,.47,5.56-.12,2.77-.2-1.06-.25-1.58-.2-1.55-.26-1.44-.8-3.27-.51-1.51,.08,.18,.17,.36,.24,.55,.13,1.11,.47,3.19,.72,4.82,.18,1.64,.27,2.82,.09,2.11,.54,3.36,.37,1.42,.12-1.09,.14,1.44,.28,2.72,.42,3.92,.12,1.2,.18,2.34,.28,3.47,.23,2.27,.25,4.57,.3,7.54,.04-.95,.15-1.82,.18-.88-.05,4.37-.07,5.33,.02,5.94,.08,.61,.15,.87,.01,3.84-.19,1.68-.28,1.37-.34,1.39-.07,.02-.09,.37-.31,3.34-.49,3.61-.38,.73-.34-.71-.3,5.42-1.51,10-2.24,12.98l.49-2.8c-.31,1.67-.56,3.04-.91,4.41,.22-.5,.41-1.02,.59-1.53-.38,1.63-.78,2.99-.85,2.94-.28,1.71,.72-1.18,.06,2.19-.38,1.05-.8,2.71-1.27,4.15-.48,1.44-.92,2.71-1.19,3.02,2.32-6.63-.5,.64,1.25-5.02-.26,1.11-.73,2.43-1.3,4.01-.11,.23,.01-.25,.14-.68-.58,1.57-.98,2.52-1.21,3.19-.23,.67-.32,1.06-.41,1.45-.16,.8-.35,1.62-1.74,4.81,.22-.87-1,1.31-1.45,2.35,1.19-2.53,.86-1.08-.16,1.3-2.17,3.91-2.23,4.32-3.39,6.35l1.39-2.29c-.3,.87-1.41,2.82-3.06,5.48-.26,.15,1.43-2.45,.78-1.54-1.55,3.14-4.57,6.36-7.42,10.25-1.5,1.67-.39-.04-1.69,1.43-1.69,2.11-2.7,3.17-3.74,4.25-1.08,1.04-2.2,2.08-4.1,4.19,.65-.5,1.02-.82,.89-.63-.12,.19-.72,.91-2.12,2.34,.55-.55,1.13-1.07,1.67-1.64l1.59-1.71c1.06-1.15,2.15-2.25,3.13-3.47l-.92,1.19-.98,1.14-1.96,2.28c.98-1.02,1.99-2.11,2.91-3.11,.88-1.02,1.64-1.96,2.22-2.58-1.74,2.28-1.59,2.03-.55,1.14-1.38,1.37-2.71,2.75-4.04,4.24-1.31,1.52-2.81,2.95-4.52,4.4l-.3-.53c-1.24,1.12-2.49,2.09-3.67,3.12-.59,.51-1.18,1.03-1.77,1.54-.61,.49-1.23,.98-1.86,1.49-1.27,1-2.54,2.09-4.06,3.1-1.5,1.03-3.08,2.18-4.99,3.23,.81-.46,1.65-.87,2.44-1.38-.4,.45-1.58,1.12-2.91,1.92-.67,.4-1.38,.82-2.08,1.23-.71,.39-1.4,.78-2.02,1.12,.14-.3-1.45,.46-2.57,.92,.05,.01-.28,.21-.81,.49-.54,.26-1.29,.62-2.06,.98-1.54,.74-3.17,1.57-3.48,1.87l-3.71,1.2c-1.64,.62-2.96,1.02-4.07,1.47-1.11,.42-2.03,.83-2.96,1.15-1.87,.65-3.67,1.44-7,2.11,1.94-.68-1.08-.08,3.28-1.31-2.18,.57-4.18,.94-4.18,1.1-1.29,.24-6.1,1.48-8.18,1.62-.93,.21-1.21,.45-3.74,.77-.28,0,0-.1,0-.1,0,.05-.98,.22-1.69,.35-.71,.11-1.14,.21-.02,.22-.88,0-1.84,.02-2.87,.07-.51,.03-1.04,.05-1.58,.08-.36,.02-.72,.05-1.09,.07l-.55,.04h-.14s-.01,.1-.02,.14l-.03,.28c-.12,1.23-.24,2.51-.36,3.81-.1,1.18-.19,2.37-.37,3.55-.3,2.36-.58,4.7-1.03,6.79-.2,1.05-.4,2.04-.61,2.96-.24,.91-.48,1.73-.72,2.46-.28,1.2-.5,2.48-.86,3.76-.34,1.28-.7,2.58-1.04,3.86-.35,1.29-.8,2.53-1.18,3.73-.39,1.21-.76,2.36-1.19,3.4,.05-.29-.09-.05,.24-.83-2.42,5.68-.78,3.79-3.91,10.13-.95,1.54-.57,.68-.09-.31,.49-.99,.97-2.17,.47-1.16-.46,.32-1.43,2.2-2.53,4.55-1.19,2.29-2.59,5.03-4.05,6.9l.58-.99c-2.05,2.96-4.59,7.53-8.37,12.09,0,0,.14-.26-.05-.09-2.25,3.37-7.45,9.05-11.74,12.82,1.16-1.37,1.84-1.82,.86-1.3-.94,.86-.73,.81-.76,.98-.01,.08-.09,.22-.39,.55-.3,.34-.84,.86-1.83,1.67-.68,.48-1.77,1.25-2.74,1.94-1,.64-1.9,1.18-2.18,1.21l1.92-1.43,1.86-1.51c-1.06,.64-2.26,1.62-3.51,2.55-1.23,.96-2.44,1.96-3.52,2.62l.18-.31c-3.01,2.1-4.57,3.12-6.17,4.21-.79,.56-1.64,1.05-2.71,1.68-1.07,.63-2.36,1.37-4.15,2.21l.79-.26c-3.71,2.28-3.36,1.38-7.19,3.39-.45,.06-.91,.08-1.36,.12-2.58,1.2-9.26,3.8-14.24,5.05,1.38-.47,3.49-1.18,5.69-1.92,1.1-.37,2.2-.82,3.26-1.21,1.05-.39,2.05-.77,2.89-1.16-1.3,.55-3.59,1.25-5.69,2.01-2.13,.64-4.09,1.28-4.78,1.55,1.09-.33,2.44-.83,3.54-1.08-3.22,1.31-7.64,2.57-13.21,3.51,.22-.23-.59-.22-1.97-.07-.69,.08-1.53,.18-2.47,.28-.94,.09-1.97,.18-3.04,.29-1.07,.12-2.18,.18-3.28,.23-1.1,.05-2.18,.13-3.19,.13-2.03-.02-3.77-.07-4.79-.21-9.93,.09-19.7-1.52-30.74-4.85,1.88,.86,1.07,.63-.15,.28-1.23-.32-2.82-.92-2.58-.5-2.57-.86-3.54-1.19-3.75-1.33l-3.73-1.7c-1.25-.55-2.44-1.23-3.66-1.84-1.68-.97,2.38,.95,2.21,.72-5.31-2.54-2.17-1.21-5.54-3.14,.3,.28-.19,.11-1.12-.33-.47-.22-1.04-.51-1.69-.84-.63-.36-1.32-.78-2.03-1.22l1.97,1.32,2.03,1.22c-.93-.45-1.73-.82-2.41-1.19-.67-.38-1.24-.72-1.75-1.04-1.01-.63-1.75-1.12-2.48-1.64-.71-.54-1.43-1.09-2.41-1.76-.49-.34-1.05-.7-1.7-1.13-.64-.45-1.37-.95-2.23-1.53l2.23,1.38c-.87-.61-2.1-1.48-3.52-2.48-1.4-1.02-2.91-2.27-4.46-3.46-1.49-1.27-2.98-2.53-4.29-3.65-1.28-1.16-2.41-2.14-3.25-2.78-.49-.58-1.05-1.42,.29-.11-3.54-3.65-7.33-7.85-10.6-12.13-3.23-4.31-5.95-8.65-7.7-12.2l.51,.6c-1-1.62-1.78-2.8-2.72-4.99,.11,.08,.48,.62,.09-.17-.12-.22-.35-.6-.61-1.1-.24-.5-.54-1.11-.86-1.76-.61-1.31-1.35-2.79-1.72-3.99,.3,.65,.61,1.3,.96,1.93-.5-1.13-.85-2.25-1.26-3.28-.38-1.04-.8-2.01-1.13-2.97-.64-1.92-1.33-3.64-1.88-5.36-.52-1.73-1.12-3.39-1.59-5.16-.23-.89-.46-1.79-.69-2.72-.24-.94-.48-1.91-.64-2.94,.22-.03,.03-1.98-.26-4.4-.17-2.44-.54-5.34-.58-7.29l.07,.13c-.05-.72-.1-1.43-.14-2.12-.04-.6-.08-1.19-.13-1.78l-.07-.97v-.12s-.08-.01-.11-.02l-.24-.02-.48-.04c-1.64-.11-3.24-.22-4.79-.33-1.28-.06-2.51-.24-3.73-.34-1.22-.12-2.43-.21-3.61-.4-1.19-.16-2.38-.32-3.57-.48-1.19-.18-2.37-.42-3.58-.63-.6-.11-1.21-.22-1.82-.33-.61-.14-1.22-.28-1.84-.42-1.23-.3-2.51-.55-3.8-.92-3.13-1.15-8.48-2.93-14.06-5.46-5.59-2.5-11.38-5.8-15.67-8.96,1.33,.95-.44,.18-2-.92-.98-.78-2.43-1.74-3.55-2.54-1.09-.84-1.87-1.48-1.59-1.51l.69,.57c-1.24-1.47-5.25-4.68-8.08-7.55l-.84-.09c-3.5-3.96-8.14-9.06-11.9-14.12-3.83-5.01-6.64-10.01-7.72-12.68-.63-1.1-1.29-2.35-1.96-3.61-.62-1.27-1.24-2.55-1.8-3.68h.32c-.73-1.58-1.19-3.05-1.73-4.4-.54-1.35-.93-2.66-1.38-4-.22-.67-.45-1.36-.68-2.07-.2-.72-.42-1.48-.64-2.27-.23-.8-.47-1.64-.72-2.54-.22-.92-.45-1.89-.69-2.95l.59,1.68c-.54-2.38-1.1-3.84-1.54-5.29-.45-1.44-.99-2.83-1.26-5.09l.24-1.41c-1.12-8.51-.84-17.21-.46-25.64,.05,.14,.15,.41,.06,1.79,.04-.5,.1-1.12,.15-1.81,.09-.69,.19-1.46,.3-2.26,.11-.8,.2-1.65,.33-2.48,.14-.83,.28-1.67,.41-2.46,.23-1.58,.53-2.98,.66-3.91,.14-.93,.14-1.39-.08-1.06,.17-.02,.69-2.16,1.32-4.85,.35-1.34,.74-2.82,1.12-4.24,.43-1.41,.84-2.76,1.17-3.87l.03,.77c.44-1.91,.78-2.86,1.13-4.02,.34-1.16,.87-2.45,1.95-4.97,.58-1.16,.67-.94-.1,.6,.94-1.94,1.32-2.69,1.66-3.59,.18-.44,.38-.91,.69-1.56,.33-.63,.78-1.44,1.45-2.57l-.79,1.79c2.15-3.89,1.95-3.59,3.03-5.8,.65-1.24,1.88-2.97,2.94-4.47,1.1-1.48,2.14-2.67,2.42-2.87,.2-.6,1.55-2.63,3.25-4.64,.29-.22-.25,.57-.53,.96,1.19-1.43,2.19-2.7,3.18-3.78,.95-1.12,1.79-2.12,2.59-3.06,.82-.93,1.63-1.76,2.45-2.6,.84-.82,1.64-1.7,2.65-2.49,.14,0,.42-.19,.75-.46-1.12,.96-2.09,1.97-2.98,2.87-.89,.9-1.69,1.7-2.35,2.36-1.27,1.37-1.97,2.19-1.84,2.01,.19,.17,3.38-3.35,1.13-.29,.3-.37,.62-.78,.97-1.21,.37-.41,.75-.85,1.16-1.3,.82-.91,1.7-1.89,2.59-2.89,.93-.97,1.93-1.9,2.89-2.81,.96-.91,1.9-1.77,2.84-2.45,.19-.12,.38-.24,.53-.31l-.36,.32c.85-.65,1.58-1.27,2.25-1.87,1.16-.92,1.97-1.4,3.12-2.23,.29-.07,1.41-.84,2.7-1.76,1.34-.85,2.87-1.82,3.86-2.46-.31-.13,2.34-1.75-.24-.4,.33-.18-.36,.27-1.69,1.12-.3,.2-.65,.42-.84,.56,.04-.03,.08-.07,.12-.11-1.34,.79-2.96,2.04-4.84,3.36,.72-.6,1.46-1.21,2.31-1.85,.83-.66,1.8-1.26,2.96-1.89,.93-.8,1.98-1.68,2.58-2.16,1.51-.66,3.68-1.65,5.56-2.54,1.93-.8,3.59-1.45,4.03-1.53,3.24-1.61,7.19-3.21,10.9-4.52,1.83-.73,3.65-1.2,5.23-1.76,.8-.26,1.54-.54,2.22-.76,.69-.21,1.31-.42,1.85-.61,2-.54,2.35-.39,3.12-.49-1.15,.32-2.53,.64-3.14,.86,3.95-1.24,11.99-2.37,12.92-2.82,5.19-.5-2.86,.67,4.23-.23l-.95,.2c.88-.05,1.74-.09,2.58-.14,.97-.07,1.92-.14,2.85-.2l.97-.08,.48-.04,.24-.02c.06,.01,.06-.03,.04-.07l-.02-.12c-.1-.63-.19-1.26-.28-1.88-.09-.73-.12-.93-.15-1.34-.04-.37-.06-.74-.08-1.11-.14-2.95,.18-5.82,.62-8.74,.9-5.85,2.04-11.91,4.95-19.18-.39,1.01-.59,1.51-.71,1.7,2.91-8.41,6.72-16.8,11.61-24.52,4.87-7.73,10.87-14.71,17.51-20.46,3.75-3.28,4.06-3.74,6.3-5.82l1.04-.42,1.96-1.72,2.02-1.65c2.97-2.21,5.78-3.78,8.86-5.32,3.08-1.55,6.4-3.12,10.6-5.15l-1.19,.29c1.54-.67,4-1.68,6.04-2.44,2.05-.73,3.64-1.26,3.42-1.05,.32-.14,.99-.53,2.27-.82l.14,.12c2.59-.91,5.24-1.65,7.92-2.31,3.15-.59,2.94-.35,3.08-.24,.14,.13,.63,.14,5.25-.58,3.42-.59,9.75-1.85,8.44-1.78-1.4,.19-3.57,.4-3.7,.26l3.15-.52c.51-.54,2.88-1.36-4.93-.59-1.79,.35-3.58,.72-5.37,1.1l-1.78,.07c1.52-.27,3.04-.52,4.56-.75-2.62,.18-4.23,.65-6.04,1.11-.46-.04-1.23,.02-2.31,.19-1.74,.51-3.47,1.05-5.17,1.65-.68,0,2.26-.97-1.29-.14-2.39,.9,2.45-.28-1.55,1.01-2.56,.6-1.91,.15-4.77,1.33-.45,.03,.14-.26,1.29-.71-2.57,1.01-6.84,2.54-8.03,3.36-.65,.21-1.51,.55-2.43,.94-.91,.4-1.87,.87-2.75,1.28-1.76,.83-3.14,1.57-3.13,1.3-.73,.47-4.1,2.61-6.23,3.98,1.85-1.41-.22-.25-2.55,1.29-2.37,1.49-4.95,3.42-4.63,2.82-1.25,1.2-3.67,3.12-6.27,5.34-2.57,2.25-5.33,4.8-7.34,7.07,.21-.27,.63-.79,1.02-1.15-2.46,2.36-3.18,3.05-4.76,4.57,0,.3-.86,1.46-1.92,2.84-1.02,1.41-2.27,3.03-3.01,4.25-2.8,3.11,1.15-2.31,.09-1.48,.18,0-.84,1.52-1.79,2.89-.93,1.39-1.71,2.69-1.2,2.17-2.02,2.49-1.61,2.23-2.8,3.43,.1,.72-1.51,2.58-2.55,5.03-2.4,3.96-1.03,.8-3.17,5.42-1.21,2.11,.65-2.03,.65-2.03ZM57.01,148.62h0c.8-.66,1.49-1.22,1.93-1.58-.4,.33-.96,.78-1.93,1.58Zm-7.37,6.93c.88-.86,1.94-1.98,3.12-3.09,.34-.16,.09,.14-.62,.86,.34-.44-1.37,1.21-2.49,2.23Zm17.46-12.14c-1.26,.95-1.72,1.21-1.93,1.28,.6-.44,1.3-.95,2.22-1.63,.03-.03,.1-.1,.14-.13-.1,.12-.21,.26-.43,.47Z"/>
    <path class="cls-1" d="M69.28,141.58c.19-.13,.29-.2,.54-.36-.28,.15-.56,.3-.83,.45-.15,.13-.3,.26-.43,.37,.24-.15,.49-.31,.72-.46Z"/>
    <path class="cls-1" d="M366.74,129.02l.2,.06c-.17-.06-.32-.11-.42-.16,.13,.05,.13,.06,.21,.09Z"/>
    <polygon class="cls-1" points="30.88 284.93 30.94 284.89 30.44 284.14 30.88 284.93"/>
    <path class="cls-1" d="M335.2,96.51c0-.11-.03-.32-.15-.72,0,.04,.07,.34,.15,.72Z"/>
    <path class="cls-1" d="M325.92,74.38l-.78-1.51-.84-1.48c.73,1.28,1.22,2.23,1.62,2.99Z"/>
    <path class="cls-1" d="M315.64,59.01c-.19-.15-.26-.18-.33-.2,0,.01,.01,.02,.02,.03l.31,.17Z"/>
    <path class="cls-1" d="M430.58,286.64c-.12,.22-.24,.43-.35,.63-.79,1.49-.24,.48,.35-.63Z"/>
    <path class="cls-1" d="M440.05,201.79c.3,.88,.6,1.75,.88,2.67-.39-1.51-.72-2.67-.88-2.67Z"/>
    <path class="cls-1" d="M352.33,340.58s0,0,0,0c-.21,.04-.39,.07-.6,.11l.59-.1Z"/>
    <path class="cls-1" d="M441.83,208.43c-.29-1.53-.59-2.8-.9-3.97,.26,1.25,.57,2.72,.9,3.97Z"/>
    <path class="cls-1" d="M247.51,20.01l-.88-.15s-.04,.03-.11,.03l.99,.12Z"/>
    <path class="cls-1" d="M246.52,19.89l-.99-.11c.45,.06,.84,.12,.99,.11Z"/>
    <path class="cls-1" d="M243.45,19.58l2.08,.2c-.72-.11-1.6-.22-2.08-.2Z"/>
    <path class="cls-1" d="M271.1,26.51h.3c-.15-.03-.25-.03-.3,0Z"/>
    <path class="cls-1" d="M277.96,29.43c-1.59-.78-3.98-2.04-6.31-2.89h-.24c.57,.14,1.83,.69,3.12,1.31,1.29,.64,2.65,1.27,3.44,1.58Z"/>
    <path class="cls-1" d="M302.91,47.55l-2.3-2.06-2.37-1.98c.77,.77,1.78,1.77-.42,.02,2.92,2.57,2.63,2.28,2.42,1.97-.22-.3-.37-.63,2.66,2.05Z"/>
    <path class="cls-1" d="M315.88,61.56c-2.08-2.58-.1,.13-.26,.03,1.37,1.59,1.7,1.98,.26-.03Z"/>
    <path class="cls-1" d="M404.38,149.47l-.42-.02c1.99,1.59,.08-.06,.42,.02Z"/>
    <path class="cls-1" d="M423.51,167.85c-.46-.7-.89-1.43-1.38-2.11l-.94-.78,1.2,1.42,1.13,1.47Z"/>
    <polygon class="cls-1" points="430.39 182.01 429.84 181.04 431.88 184.75 430.39 182.01"/>
    <path class="cls-1" d="M336.83,354.76l.45-.7c.25-1.71-.03-2.12-.45,.7Z"/>
    <path class="cls-1" d="M279.95,432.45c-1.05,.34-3.6,1.51-5.14,2.3,2.08-.84,4.13-1.78,5.14-2.3Z"/>
    <polygon class="cls-1" points="48.61 305 50.05 306.39 47.42 303.68 48.61 305"/>
  </g>
</svg>